ffmpeg version 3.4.6-0ubuntu0.18.04.1 Copyright (c) 2000-2019 the FFmpeg developers
  built with gcc 7 (Ubuntu 7.3.0-16ubuntu3)
  configuration: --prefix=/usr --extra-version=0ubuntu0.18.04.1 --toolchain=hardened --libdir=/usr/lib/x86_64-linux-gnu --incdir=/usr/include/x86_64-linux-gnu --enable-gpl --disable-stripping --enable-avresample --enable-avisynth --enable-gnutls --enable-ladspa --enable-libass --enable-libbluray --enable-libbs2b --enable-libcaca --enable-libcdio --enable-libflite --enable-libfontconfig --enable-libfreetype --enable-libfribidi --enable-libgme --enable-libgsm --enable-libmp3lame --enable-libmysofa --enable-libopenjpeg --enable-libopenmpt --enable-libopus --enable-libpulse --enable-librubberband --enable-librsvg --enable-libshine --enable-libsnappy --enable-libsoxr --enable-libspeex --enable-libssh --enable-libtheora --enable-libtwolame --enable-libvorbis --enable-libvpx --enable-libwavpack --enable-libwebp --enable-libx265 --enable-libxml2 --enable-libxvid --enable-libzmq --enable-libzvbi --enable-omx --enable-openal --enable-opengl --enable-sdl2 --enable-libdc1394 --enable-libdrm --enable-libiec61883 --enable-chromaprint --enable-frei0r --enable-libopencv --enable-libx264 --enable-shared
  libavutil      55. 78.100 / 55. 78.100
  libavcodec     57.107.100 / 57.107.100
  libavformat    57. 83.100 / 57. 83.100
  libavdevice    57. 10.100 / 57. 10.100
  libavfilter     6.107.100 /  6.107.100
  libavresample   3.  7.  0 /  3.  7.  0
  libswscale      4.  8.100 /  4.  8.100
  libswresample   2.  9.100 /  2.  9.100
  libpostproc    54.  7.100 / 54.  7.100
Input #0, image2pipe, from 'pipe:':
  Duration: N/A, bitrate: N/A
    Stream #0:0: Video: ppm, rgb24, 320x240, 20 fps, 20 tbr, 20 tbn, 20 tbc
Stream mapping:
  Stream #0:0 -> #0:0 (ppm (native) -> h264 (libx264))
[libx264 @ 0x5637e29d8f40] using cpu capabilities: MMX2 SSE2Fast SSSE3 SSE4.2 AVX FMA3 BMI2 AVX2
[libx264 @ 0x5637e29d8f40] profile High, level 1.3
[libx264 @ 0x5637e29d8f40] 264 - core 152 r2854 e9a5903 - H.264/MPEG-4 AVC codec - Copyleft 2003-2017 - http://www.videolan.org/x264.html - options: cabac=1 ref=3 deblock=1:0:0 analyse=0x3:0x113 me=hex subme=7 psy=1 psy_rd=1.00:0.00 mixed_ref=1 me_range=16 chroma_me=1 trellis=1 8x8dct=1 cqm=0 deadzone=21,11 fast_pskip=1 chroma_qp_offset=-2 threads=1 lookahead_threads=1 sliced_threads=0 nr=0 decimate=1 interlaced=0 bluray_compat=0 constrained_intra=0 bframes=3 b_pyramid=2 b_adapt=1 b_bias=0 direct=1 weightb=1 open_gop=0 weightp=2 keyint=250 keyint_min=20 scenecut=40 intra_refresh=0 rc_lookahead=40 rc=abr mbtree=1 bitrate=400 ratetol=1.0 qcomp=0.60 qpmin=0 qpmax=69 qpstep=4 ip_ratio=1.40 aq=1:1.00
Output #0, mp4, to './mission_records/d8d9af1f-ef79-47a4-8247-19ac6256ad81/video.mp4':
  Metadata:
    encoder         : Lavf57.83.100
    Stream #0:0: Video: h264 (libx264) (avc1 / 0x31637661), yuv420p, 320x240, q=-1--1, 400 kb/s, 20 fps, 10240 tbn, 20 tbc
    Metadata:
      encoder         : Lavc57.107.100 libx264
    Side data:
      cpb: bitrate max/min/avg: 0/0/400000 buffer size: 0 vbv_delay: -1
frame=   31 fps=0.0 q=0.0 size=       0kB time=00:00:00.00 bitrate=N/A speed=   0x    frame=   40 fps= 38 q=0.0 size=       0kB time=00:00:00.00 bitrate=N/A speed=   0x    frame=   49 fps= 31 q=24.0 size=       0kB time=00:00:00.25 bitrate=   1.5kbits/s speed=0.158x    frame=   58 fps= 28 q=26.0 size=       0kB time=00:00:00.70 bitrate=   0.5kbits/s speed=0.334x    frame=   67 fps= 26 q=27.0 size=       0kB time=00:00:01.15 bitrate=   0.3kbits/s speed=0.442x    frame=   76 fps= 24 q=27.0 size=       0kB time=00:00:01.60 bitrate=   0.2kbits/s speed=0.508x    frame=   85 fps= 23 q=28.0 size=       0kB time=00:00:02.05 bitrate=   0.2kbits/s speed=0.559x    frame=   94 fps= 22 q=27.0 size=       0kB time=00:00:02.50 bitrate=   0.2kbits/s speed=0.595x    frame=  103 fps= 22 q=27.0 size=       0kB time=00:00:02.95 bitrate=   0.1kbits/s speed=0.624x    frame=  112 fps= 21 q=28.0 size=       0kB time=00:00:03.40 bitrate=   0.1kbits/s speed=0.641x    frame=  120 fps= 21 q=27.0 size=       0kB time=00:00:03.80 bitrate=   0.1kbits/s speed=0.654x    frame=  129 fps= 20 q=27.0 size=       0kB time=00:00:04.25 bitrate=   0.1kbits/s speed=0.672x    frame=  137 fps= 20 q=27.0 size=       0kB time=00:00:04.65 bitrate=   0.1kbits/s speed=0.678x    Error while decoding stream #0:0: Invalid data found when processing input
frame=  141 fps= 18 q=28.0 Lsize=     359kB time=00:00:06.90 bitrate= 426.5kbits/s speed=0.897x    
video:358kB audio:0kB subtitle:0kB other streams:0kB global headers:0kB muxing overhead: 0.474686%
[libx264 @ 0x5637e29d8f40] frame I:10    Avg QP:19.65  size:  4247
[libx264 @ 0x5637e29d8f40] frame P:110   Avg QP:22.36  size:  2571
[libx264 @ 0x5637e29d8f40] frame B:21    Avg QP:23.03  size:  1910
[libx264 @ 0x5637e29d8f40] consecutive B-frames: 76.6%  9.9%  2.1% 11.3%
[libx264 @ 0x5637e29d8f40] mb I  I16..4: 27.0% 61.6% 11.4%
[libx264 @ 0x5637e29d8f40] mb P  I16..4: 19.0% 30.7%  3.9%  P16..4: 22.1%  4.7%  4.4%  0.0%  0.0%    skip:15.3%
[libx264 @ 0x5637e29d8f40] mb B  I16..4:  6.4% 10.9%  0.6%  B16..8: 30.8%  6.3%  2.3%  direct:16.4%  skip:26.3%  L0:46.4% L1:49.6% BI: 4.1%
[libx264 @ 0x5637e29d8f40] final ratefactor: 22.58
[libx264 @ 0x5637e29d8f40] 8x8 transform intra:58.0% inter:71.9%
[libx264 @ 0x5637e29d8f40] coded y,uvDC,uvAC intra: 48.4% 23.8% 2.8% inter: 14.6% 21.5% 0.1%
[libx264 @ 0x5637e29d8f40] i16 v,h,dc,p:  8% 60%  9% 23%
[libx264 @ 0x5637e29d8f40] i8 v,h,dc,ddl,ddr,vr,hd,vl,hu:  5% 21% 44%  4%  5%  3%  7%  3%  7%
[libx264 @ 0x5637e29d8f40] i4 v,h,dc,ddl,ddr,vr,hd,vl,hu:  8% 33% 25%  5%  6%  4%  9%  3%  7%
[libx264 @ 0x5637e29d8f40] i8c dc,h,v,p: 60% 34%  1%  6%
[libx264 @ 0x5637e29d8f40] Weighted P-Frames: Y:8.2% UV:6.4%
[libx264 @ 0x5637e29d8f40] ref P L0: 68.2%  4.3% 17.3%  9.9%  0.4%
[libx264 @ 0x5637e29d8f40] ref B L0: 89.2% 10.2%  0.6%
[libx264 @ 0x5637e29d8f40] ref B L1: 95.7%  4.3%
[libx264 @ 0x5637e29d8f40] kb/s:414.68
